<svg width="72" height="72" viewBox="0 0 72 72" fill="none" xmlns="http://www.w3.org/2000/svg">
<rect width="72" height="72" rx="36" fill="#FF0000"/>
<path d="M46 33C46 33.5523 45.5523 34 45 34H37C36.4477 34 36 33.5523 36 33C36 32.4477 36.4477 32 37 32H45C45.5523 32 46 32.4477 46 33Z" fill="white"/>
<path d="M45 44C45.5523 44 46 43.5523 46 43C46 42.4477 45.5523 42 45 42H37C36.4477 42 36 42.4477 36 43C36 43.5523 36.4477 44 37 44H45Z" fill="white"/>
<path d="M34.2071 29.2929C34.5976 29.6834 34.5976 30.3166 34.2071 30.7071L29.7071 35.2071C29.3166 35.5976 28.6834 35.5976 28.2929 35.2071L26.2929 33.2071C25.9024 32.8166 25.9024 32.1834 26.2929 31.7929C26.6834 31.4024 27.3166 31.4024 27.7071 31.7929L29 33.0858L32.7929 29.2929C33.1834 28.9024 33.8166 28.9024 34.2071 29.2929Z" fill="white"/>
<path d="M34.2071 40.7071C34.5976 40.3166 34.5976 39.6834 34.2071 39.2929C33.8166 38.9024 33.1834 38.9024 32.7929 39.2929L29 43.0858L27.7071 41.7929C27.3166 41.4024 26.6834 41.4024 26.2929 41.7929C25.9024 42.1834 25.9024 42.8166 26.2929 43.2071L28.2929 45.2071C28.6834 45.5976 29.3166 45.5976 29.7071 45.2071L34.2071 40.7071Z" fill="white"/>
<path fill-rule="evenodd" clip-rule="evenodd" d="M28 18C28 17.4477 27.5523 17 27 17C26.4477 17 26 17.4477 26 18V20H23C21.3431 20 20 21.3431 20 23V49C20 50.6569 21.3431 52 23 52H49C50.6569 52 52 50.6569 52 49V23C52 21.3431 50.6569 20 49 20H46V18C46 17.4477 45.5523 17 45 17C44.4477 17 44 17.4477 44 18V20H37V18C37 17.4477 36.5523 17 36 17C35.4477 17 35 17.4477 35 18V20H28V18ZM44 22H37V24C37 24.5523 36.5523 25 36 25C35.4477 25 35 24.5523 35 24V22H28V24C28 24.5523 27.5523 25 27 25C26.4477 25 26 24.5523 26 24V22H23C22.4477 22 22 22.4477 22 23V49C22 49.5523 22.4477 50 23 50H49C49.5523 50 50 49.5523 50 49V23C50 22.4477 49.5523 22 49 22H46V24C46 24.5523 45.5523 25 45 25C44.4477 25 44 24.5523 44 24V22Z" fill="white"/>
</svg>
