<svg width="72" height="72" viewBox="0 0 72 72" fill="none" xmlns="http://www.w3.org/2000/svg">
<rect width="72" height="72" rx="36" fill="#FF0000"/>
<path fill-rule="evenodd" clip-rule="evenodd" d="M40 29C40 30.0232 39.6159 30.9566 38.9839 31.6639C40.7342 32.4945 42 34.0477 42 36C42 36.5523 41.5523 37 41 37C40.4477 37 40 36.5523 40 36C40 34.5398 38.4289 33 36 33C33.5711 33 32 34.5398 32 36C32 36.5523 31.5523 37 31 37C30.4477 37 30 36.5523 30 36C30 34.0477 31.2658 32.4945 33.0161 31.6639C32.3841 30.9566 32 30.0232 32 29C32 26.7909 33.7909 25 36 25C38.2091 25 40 26.7909 40 29ZM34 29C34 27.8954 34.8954 27 36 27C37.1046 27 38 27.8954 38 29C38 30.1046 37.1046 31 36 31C34.8954 31 34 30.1046 34 29Z" fill="white"/>
<path d="M37 46C37.5523 46 38 45.5523 38 45C38 44.4477 37.5523 44 37 44H31C30.4477 44 30 44.4477 30 45C30 45.5523 30.4477 46 31 46H37Z" fill="white"/>
<path d="M42 40C42 40.5523 41.5523 41 41 41H31C30.4477 41 30 40.5523 30 40C30 39.4477 30.4477 39 31 39H41C41.5523 39 42 39.4477 42 40Z" fill="white"/>
<path fill-rule="evenodd" clip-rule="evenodd" d="M20 23C20 21.3431 21.3431 20 23 20H49C50.6569 20 52 21.3431 52 23V43.7574C52 44.553 51.6839 45.3161 51.1213 45.8787L45.8787 51.1213C45.3161 51.6839 44.553 52 43.7574 52H23C21.3431 52 20 50.6569 20 49V23ZM23 22H49C49.5523 22 50 22.4477 50 23V43H44C43.4477 43 43 43.4477 43 44V50H23C22.4477 50 22 49.5523 22 49V23C22 22.4477 22.4477 22 23 22ZM45 49.1716L49.1716 45H45V49.1716Z" fill="white"/>
</svg>
