<svg width="72" height="72" viewBox="0 0 72 72" fill="none" xmlns="http://www.w3.org/2000/svg">
<rect width="72" height="72" rx="36" fill="#FF0000"/>
<path fill-rule="evenodd" clip-rule="evenodd" d="M30.1094 23.7454C30.4806 23.0181 31.5197 23.0181 31.8909 23.7454L33.1671 26.2461C33.3124 26.5308 33.585 26.7289 33.9007 26.7791L36.6734 27.2201C37.4798 27.3484 37.8009 28.3367 37.2239 28.9144L35.2399 30.9009C35.0141 31.127 34.9099 31.4476 34.9597 31.7633L35.3971 34.5366C35.5243 35.3431 34.6837 35.9539 33.9559 35.5837L31.4536 34.3107C31.1687 34.1658 30.8316 34.1658 30.5467 34.3107L28.0444 35.5837C27.3166 35.9539 26.4759 35.3431 26.6032 34.5366L27.0406 31.7633C27.0904 31.4476 26.9862 31.127 26.7603 30.9009L24.7764 28.9144C24.1994 28.3367 24.5205 27.3484 25.3269 27.2201L28.0996 26.7791C28.4153 26.7289 28.6879 26.5308 28.8332 26.2461L30.1094 23.7454ZM30.6147 27.1552L31.0001 26.3999L31.3856 27.1552C31.8215 28.0094 32.6395 28.6037 33.5866 28.7543L34.4241 28.8875L33.8248 29.4876C33.1472 30.1661 32.8347 31.1277 32.9841 32.0749L33.1163 32.9126L32.3604 32.5281C31.5057 32.0933 30.4946 32.0933 29.6399 32.5281L28.884 32.9126L29.0162 32.0749C29.1656 31.1277 28.8531 30.1661 28.1755 29.4876L27.5762 28.8875L28.4137 28.7543C29.3608 28.6037 30.1788 28.0094 30.6147 27.1552Z" fill="white"/>
<path fill-rule="evenodd" clip-rule="evenodd" d="M16 21C16 19.3431 17.3431 18 19 18H43C44.6569 18 46 19.3431 46 21V33H53C54.6569 33 56 34.3431 56 36V46C56 47.6569 54.6569 49 53 49H52.677L50.9285 53.3714C50.7963 53.7018 50.4986 53.937 50.1466 53.9892C49.7946 54.0414 49.4414 53.9025 49.2191 53.6247L45.5194 49H38C36.3431 49 35 47.6569 35 46V42H32.4538L27.0116 48.2196C25.9483 49.4348 23.9578 48.9541 23.5661 47.3877L22.2192 42H19C17.3431 42 16 40.6569 16 39V21ZM46 39V35H53C53.5523 35 54 35.4477 54 36V46C54 46.5523 53.5523 47 53 47H52C51.5911 47 51.2234 47.249 51.0715 47.6286L49.7089 51.0353L46.7809 47.3753C46.5911 47.1381 46.3038 47 46 47H38C37.4477 47 37 46.5523 37 46V42H43C44.6569 42 46 40.6569 46 39ZM19 20C18.4477 20 18 20.4477 18 21V39C18 39.5523 18.4477 40 19 40H22.2192C23.137 40 23.9369 40.6246 24.1595 41.5149L25.5064 46.9026L30.9486 40.683C31.3284 40.249 31.877 40 32.4538 40H43C43.5523 40 44 39.5523 44 39V21C44 20.4477 43.5523 20 43 20H19Z" fill="white"/>
</svg>
