<svg width="72" height="72" viewBox="0 0 72 72" fill="none" xmlns="http://www.w3.org/2000/svg">
<rect width="72" height="72" rx="36" fill="#FF0000"/>
<path d="M19 36C19 26.6112 26.6112 19 36 19C37.6402 19 39.2245 19.232 40.7227 19.6643C41.2534 19.8175 41.8077 19.5114 41.9608 18.9808C42.1139 18.4501 41.8079 17.8959 41.2773 17.7427C39.6006 17.2589 37.8297 17 36 17C25.5066 17 17 25.5066 17 36C17 46.4934 25.5066 55 36 55C46.4934 55 55 46.4934 55 36C55 34.1703 54.7411 32.3994 54.2573 30.7227C54.1041 30.1921 53.5499 29.8861 53.0192 30.0392C52.4886 30.1923 52.1825 30.7466 52.3357 31.2773C52.768 32.7755 53 34.3598 53 36C53 45.3888 45.3888 53 36 53C26.6112 53 19 45.3888 19 36Z" fill="white"/>
<path d="M53.7071 20.7071C54.0976 20.3166 54.0976 19.6834 53.7071 19.2929C53.3166 18.9024 52.6834 18.9024 52.2929 19.2929L46 25.5858L43.7071 23.2929C43.3166 22.9024 42.6834 22.9024 42.2929 23.2929C41.9024 23.6834 41.9024 24.3166 42.2929 24.7071L45.2929 27.7071C45.6834 28.0976 46.3166 28.0976 46.7071 27.7071L53.7071 20.7071Z" fill="white"/>
<path fill-rule="evenodd" clip-rule="evenodd" d="M39.643 35.7678C41.0759 34.6713 42 32.9436 42 31C42 27.6863 39.3137 25 36 25C32.6863 25 30 27.6863 30 31C30 32.9436 30.9241 34.6713 32.357 35.7678C29.2013 37.1664 27 40.3261 27 44C27 44.5523 27.4477 45 28 45C28.5523 45 29 44.5523 29 44C29 40.134 32.134 37 36 37C39.866 37 43 40.134 43 44C43 44.5523 43.4477 45 44 45C44.5523 45 45 44.5523 45 44C45 40.3261 42.7987 37.1664 39.643 35.7678ZM36 27C33.7909 27 32 28.7909 32 31C32 33.2091 33.7909 35 36 35C38.2091 35 40 33.2091 40 31C40 28.7909 38.2091 27 36 27Z" fill="white"/>
</svg>
