<svg width="1440" height="140" viewBox="0 0 1440 140" fill="none" xmlns="http://www.w3.org/2000/svg">
<path d="M18.9112 0C5.84437 0 -4.91459 1.96585 -12.5477 5.68209L-12.6067 5.71083L-12.6671 5.73694C-27.8913 12.3254 -38.5881 24.8856 -38.5881 41.0444C-38.5881 49.1167 -36.204 55.3563 -32.3102 60.3428C-28.3805 65.3752 -22.7946 69.2801 -16.1815 72.4355C-5.52875 77.5184 7.21426 80.4243 19.0273 83.1181C22.0306 83.803 24.9738 84.4741 27.8073 85.1639C35.5007 87.0367 44.3359 92.3172 44.3359 100.855C44.3359 107.274 40.2157 111.002 36.0124 114.071C33.4629 115.933 30.1558 117.042 26.4796 117.705C22.7789 118.372 18.4869 118.625 13.7925 118.625C5.397 118.625 -4.19476 117.608 -12.8232 114.457C-20.0126 111.832 -26.4129 108.473 -32.0167 105.028L-41 124.908C-35.3253 128.963 -27.2658 132.373 -18.1313 135.041C2.36626 141.029 27.0041 142.56 46.3945 134.169C55.1686 130.372 61.8796 124.717 65.6343 119.233L65.6602 119.195L65.6873 119.158C70.4344 112.687 72.3155 106.288 72.3155 98.8615C72.3155 90.1739 70.3102 83.1203 65.996 78.9195L65.9031 78.8291L65.819 78.7308C60.8319 72.9035 53.9979 69.1786 46.2874 66.3885C40.6374 64.3439 34.7433 62.8706 28.876 61.4039C26.6961 60.859 24.52 60.315 22.3614 59.743C11.6543 57.8357 4.52566 55.0399 -0.522038 53.0602L-0.538361 53.0538C-0.910297 52.908 -1.27094 52.7665 -1.62085 52.6303L-1.83708 52.546L-2.0367 52.4294C-4.70046 50.8732 -7.1059 49.1661 -8.83939 47.0179C-10.6417 44.7843 -11.6322 42.1809 -11.6322 39.0507C-11.6322 36.175 -11.0381 33.4374 -9.59787 30.9443C-8.17794 28.4863 -6.03318 26.4349 -3.18538 24.7486C-0.653015 22.9403 2.60685 21.8561 6.22409 21.2038C9.92477 20.5365 14.2168 20.2842 18.9112 20.2842C31.7526 20.2842 44.5088 23.835 56.346 30.0342L64.4667 10.2658C59.0897 7.0918 52.8164 4.63658 44.8974 2.92305L44.86 2.91496L44.8228 2.90592C36.8955 0.976165 27.9222 0 18.9112 0Z" fill="#F2F2F2"/>
<path d="M161.042 1.98595V77.9199C161.042 98.3141 167.013 113.472 177.599 123.78C188.134 134.038 203.659 138.911 222.712 139.898C242.567 139.883 258.113 134.086 268.697 123.78C279.283 113.472 285.254 98.3141 285.254 77.9199V1.98595H258.298V76.9231C258.298 90.2212 255.162 100.945 249.439 107.632C243.595 114.459 234.447 117.62 223.66 117.62C212.276 117.62 203.4 114.159 197.465 106.97C191.629 99.9019 189.021 89.6826 189.021 76.9231V1.98595H161.042Z" fill="#F2F2F2"/>
<path d="M513.384 1.98595V136.908H491.885L412.032 45.024V136.908H385.415V1.98595H407.937L486.766 94.8663V1.98595H513.384Z" fill="#F2F2F2"/>
<path d="M614.562 1.98595V136.908H714.205V115.626H641.518V1.98595H614.562Z" fill="#F2F2F2"/>
<path d="M799.868 136.908V1.98595H827.847V136.908H799.868Z" fill="#F2F2F2"/>
<path d="M997.619 1.01238C982.678 1.01238 969.82 3.916 957.97 9.68501C946.238 15.397 937.393 23.9776 930.455 34.594C923.633 45.0318 920.669 56.4488 920.669 69.9685C920.669 82.5124 923.643 94.9199 930.455 105.343L930.507 105.423L930.554 105.506C943.342 128.335 970.88 138.924 996.595 138.924C1006.45 138.924 1016.39 137.004 1026.47 134.06L1026.51 134.05L1026.54 134.04C1036.93 131.283 1044.54 127.681 1052.05 122.379V69.7948H1028.16V110.478L1026.7 111.289C1019 115.573 1009.27 117.643 999.667 117.643C990.006 117.643 981.308 115.548 973.653 111.289C966.037 107.051 960.546 101.704 956.195 94.2901C951.852 86.8905 949.672 79.4326 949.672 69.9685C949.672 61.5327 951.837 53.0732 956.195 45.6467C960.546 38.2325 966.037 32.8856 973.653 28.6476C981.308 24.3884 990.006 22.2934 999.667 22.2934C1013.88 22.2934 1026.27 26.9751 1036.67 37.123L1053.93 21.9235C1047.5 15.2826 1040.25 10.2644 1031.39 6.80749C1020.45 2.94113 1009.54 1.01238 997.619 1.01238Z" fill="#F2F2F2"/>
<path d="M1149.99 136.908V1.98595H1176.95V57.8094H1248.27V1.98595H1276.25V136.908H1248.27V79.0904H1176.95V136.908H1149.99Z" fill="#F2F2F2"/>
<path d="M1360.88 1.98595V23.267H1406.95V136.908H1434.93V23.267H1481V1.98595H1360.88Z" fill="#F2F2F2"/>
</svg>
