<svg width="20" height="20" viewBox="0 0 20 20" fill="none" xmlns="http://www.w3.org/2000/svg">
<path fill-rule="evenodd" clip-rule="evenodd" d="M9.99996 16.6667C13.6819 16.6667 16.6666 13.6819 16.6666 9.99999C16.6666 6.31809 13.6819 3.33332 9.99996 3.33332C6.31806 3.33332 3.33329 6.31809 3.33329 9.99999C3.33329 13.6819 6.31806 16.6667 9.99996 16.6667ZM9.99996 18.3333C14.6023 18.3333 18.3333 14.6024 18.3333 9.99999C18.3333 5.39762 14.6023 1.66666 9.99996 1.66666C5.39759 1.66666 1.66663 5.39762 1.66663 9.99999C1.66663 14.6024 5.39759 18.3333 9.99996 18.3333Z" fill="white"/>
<path d="M12.441 6.71988V8.59423C11.8251 8.00352 11.1336 7.70817 10.3666 7.70817C9.71587 7.70817 9.1755 7.91832 8.74553 8.33863C8.32718 8.74758 8.118 9.29853 8.118 9.99147C8.118 10.7071 8.3388 11.2808 8.78039 11.7125C9.19874 12.0987 9.71587 12.2918 10.3318 12.2918C11.1801 12.2918 11.8832 11.9851 12.441 11.3717V13.229C11.8251 13.6039 11.0813 13.7913 10.2098 13.7913C9.03605 13.7913 8.10638 13.4391 7.42075 12.7348C6.7235 12.0305 6.37488 11.1331 6.37488 10.0426C6.37488 8.91798 6.74675 7.99216 7.49048 7.26514C8.21097 6.56084 9.19293 6.20869 10.4364 6.20869C11.1452 6.20869 11.8134 6.37908 12.441 6.71988Z" fill="white"/>
</svg>
