<svg width="86" height="20" viewBox="0 0 86 20" fill="none" xmlns="http://www.w3.org/2000/svg">
<g clip-path="url(#clip0_1_2726)">
<path fill-rule="evenodd" clip-rule="evenodd" d="M17.9887 13.3842V0H4.72365L2.10604 13.3842H0V20H3.2495L3.5507 16.7834H16.3942L16.6954 20H19.9441V13.3842H17.9887ZM14.2292 13.3842H6.01693L7.79151 3.30827H14.2292V13.3842ZM36.1272 0L26.2304 11.6541V0H22.5043V16.7834H26.1746L36.0411 5.19188V16.7834H39.7672V0H36.1272Z" fill="black"/>
<path fill-rule="evenodd" clip-rule="evenodd" d="M55.2568 0H59.0171V16.7834H55.2568V13.172H49.3307C45.4205 13.172 42.7734 10.531 42.7734 6.586V0H46.533V6.25235C46.533 8.58944 47.7362 9.74232 49.902 9.74232H55.2583L55.2568 0ZM71.6207 3.8244H65.8763V0H62.1152V16.7834H71.6207C75.5308 16.7834 78.4784 14.1432 78.4784 10.1974C78.4784 6.25157 75.5301 3.8244 71.6207 3.8244ZM71.3498 13.3232H65.8747V7.19298H71.3498C73.5754 7.19298 74.7188 8.13283 74.7188 10.1974C74.7188 12.2619 73.5754 13.3232 71.3498 13.3232Z" fill="black"/>
<path fill-rule="evenodd" clip-rule="evenodd" d="M86.0042 14.5067C86.0042 15.9948 84.8009 17.0866 83.3268 17.0866C81.8526 17.0866 80.6797 15.994 80.6797 14.5067V14.4754C80.6817 14.1267 80.7518 13.7819 80.8859 13.4605C81.0201 13.1392 81.2156 12.8476 81.4614 12.6025C81.7072 12.3575 81.9985 12.1636 82.3185 12.0321C82.6386 11.9006 82.9812 11.8339 83.3268 11.836H83.3369C83.6858 11.8346 84.0316 11.9027 84.3545 12.0362C84.6774 12.1696 84.9711 12.366 85.2188 12.614C85.4665 12.862 85.6633 13.1568 85.7981 13.4816C85.9328 13.8063 86.0029 14.1547 86.0042 14.5067Z" fill="#FF0000"/>
</g>
<defs>
<clipPath id="clip0_1_2726">
<rect width="86" height="20" fill="white"/>
</clipPath>
</defs>
</svg>
