<svg width="86" height="32" viewBox="0 0 86 32" fill="none" xmlns="http://www.w3.org/2000/svg">
<path d="M28.666 8.55231L28.0867 8.09495C28.5271 7.4377 29.1742 7.10908 30.0279 7.10908C30.6377 7.10908 31.1154 7.26831 31.461 7.58677C31.8133 7.90523 31.9895 8.32194 31.9895 8.83689C31.9895 9.1689 31.9014 9.46026 31.7252 9.71096C31.5558 9.95489 31.3322 10.1412 31.0544 10.27C31.4949 10.3716 31.8303 10.5816 32.0606 10.9001C32.2978 11.2186 32.4164 11.5912 32.4164 12.0181C32.4164 12.7228 32.1352 13.275 31.5728 13.6748C31.1391 13.9729 30.6242 14.122 30.0279 14.122C29.4113 14.122 28.8998 13.9661 28.4932 13.6544C28.0867 13.3428 27.7818 12.9565 27.5785 12.4958L28.3103 12.1706C28.4458 12.55 28.6694 12.8515 28.9811 13.0751C29.2928 13.2987 29.6519 13.4105 30.0584 13.4105C30.4717 13.4105 30.8173 13.3157 31.0951 13.1259C31.461 12.8685 31.6439 12.506 31.6439 12.0384C31.6439 11.1508 31.0409 10.707 29.8348 10.707H29.225V9.99554H29.8348C30.282 9.99554 30.6242 9.88713 30.8613 9.67031C31.0985 9.45348 31.2171 9.17907 31.2171 8.84706C31.2171 8.5557 31.1256 8.31855 30.9426 8.1356C30.7394 7.92556 30.4345 7.82053 30.0279 7.82053C29.4588 7.82053 29.0048 8.06446 28.666 8.55231ZM36.8494 10.3818V9.78211H37.5812V14H36.8494V13.4105C36.4836 13.8848 36.0025 14.122 35.4062 14.122C34.837 14.122 34.3526 13.9255 33.9528 13.5325C33.553 13.1395 33.3532 12.5906 33.3532 11.886C33.3532 11.1948 33.5497 10.6562 33.9427 10.27C34.3424 9.87697 34.8303 9.68047 35.4062 9.68047C36.016 9.68047 36.4971 9.91423 36.8494 10.3818ZM35.4875 10.3309C35.1013 10.3309 34.7727 10.4698 34.5016 10.7476C34.2374 11.0187 34.1053 11.3981 34.1053 11.886C34.1053 12.3535 34.2272 12.7363 34.4712 13.0345C34.7219 13.3258 35.0606 13.4715 35.4875 13.4715C35.9144 13.4715 36.2532 13.319 36.5039 13.0141C36.7614 12.7092 36.8901 12.3366 36.8901 11.8961C36.8901 11.3947 36.7478 11.0085 36.4632 10.7375C36.1786 10.4665 35.8534 10.3309 35.4875 10.3309ZM38.9672 14V9.78211H41.4674V10.4529H39.699V14H38.9672ZM42.9347 13.4105V16.3376H42.2029V9.78211H42.9347V10.3716C43.3073 9.91085 43.7884 9.68047 44.3779 9.68047C45.008 9.68047 45.506 9.90407 45.8719 10.3513C46.2446 10.7917 46.4309 11.3134 46.4309 11.9165C46.4309 12.5263 46.248 13.048 45.8821 13.4817C45.5162 13.9085 45.025 14.122 44.4084 14.122C43.7918 14.122 43.3005 13.8848 42.9347 13.4105ZM44.3067 13.4715C44.7201 13.4715 45.0521 13.3224 45.3028 13.0243C45.5535 12.7194 45.6788 12.3501 45.6788 11.9165C45.6788 11.4286 45.5399 11.0424 45.2621 10.7578C44.9843 10.4732 44.6625 10.3309 44.2966 10.3309C43.9307 10.3309 43.6055 10.4732 43.3209 10.7578C43.0363 11.0424 42.894 11.4252 42.894 11.9063C42.894 12.3467 43.0227 12.7194 43.2802 13.0243C43.5445 13.3224 43.8866 13.4715 44.3067 13.4715ZM47.5425 16.3376L48.8841 13.6036L46.9428 9.78211H47.7763L49.2703 12.8007L50.6424 9.78211H51.4555L48.3556 16.3376H47.5425ZM52.5778 10.8594L52.0697 10.4427C52.2323 10.2056 52.4118 10.0294 52.6083 9.91423C52.8726 9.75839 53.1809 9.68047 53.5332 9.68047C53.9601 9.68047 54.2921 9.77872 54.5293 9.97522C54.7732 10.1853 54.8951 10.4529 54.8951 10.7781C54.8951 11.1711 54.7359 11.4659 54.4175 11.6624C54.6207 11.7098 54.7833 11.8013 54.9053 11.9368C55.1018 12.1468 55.2001 12.4043 55.2001 12.7092C55.2001 13.1632 55.0171 13.5257 54.6512 13.7967C54.3531 14.0136 53.9533 14.122 53.4519 14.122C53.0047 14.122 52.6287 14.0034 52.3238 13.7662C52.0934 13.5968 51.907 13.3563 51.7648 13.0446L52.3949 12.7804C52.4694 12.9701 52.5948 13.1293 52.771 13.2581C52.9607 13.4003 53.191 13.4715 53.4621 13.4715C53.7805 13.4715 54.0177 13.4173 54.1735 13.3089C54.37 13.1801 54.4683 12.9836 54.4683 12.7194C54.4683 12.5026 54.3836 12.3399 54.2142 12.2315C54.0719 12.1367 53.8415 12.0892 53.5231 12.0892H53.0962V11.4184H53.4519C53.7094 11.4184 53.8923 11.3812 54.0007 11.3066C54.1498 11.2118 54.2243 11.083 54.2243 10.9204C54.2243 10.7307 54.1634 10.585 54.0414 10.4834C53.9262 10.3818 53.7467 10.3309 53.5027 10.3309C53.2927 10.3309 53.0996 10.3851 52.9234 10.4936C52.7743 10.5884 52.6592 10.7104 52.5778 10.8594ZM56.3168 9.78211H57.0486V12.5669L59.935 9.45687V14H59.2032V11.1847L56.3168 14.2947V9.78211ZM64.0837 10.4529H62.7624V14H62.0306V10.4529H60.7094V9.78211H64.0837V10.4529ZM67.8837 12.5873L68.4936 12.9227C68.3513 13.1937 68.1785 13.4207 67.9752 13.6036C67.589 13.9492 67.1215 14.122 66.5726 14.122C66.0035 14.122 65.5122 13.939 65.0989 13.5731C64.6924 13.2005 64.4891 12.6482 64.4891 11.9165C64.4891 11.2728 64.672 10.7409 65.0379 10.3208C65.4106 9.89391 65.9086 9.68047 66.532 9.68047C67.2367 9.68047 67.7686 9.93795 68.1277 10.4529C68.4123 10.8594 68.5444 11.388 68.5241 12.0384H65.2412C65.248 12.4653 65.3801 12.8109 65.6376 13.0751C65.8951 13.3394 66.2101 13.4715 66.5828 13.4715C66.9148 13.4715 67.2028 13.3699 67.4467 13.1666C67.6364 13.004 67.7821 12.8109 67.8837 12.5873ZM65.292 11.4286H67.7719C67.711 11.0966 67.5653 10.8323 67.3349 10.6358C67.1113 10.4326 66.8437 10.3309 66.532 10.3309C66.2271 10.3309 65.9561 10.436 65.7189 10.646C65.4885 10.8493 65.3462 11.1102 65.292 11.4286ZM72.0187 9.78211H73.6144C74.0006 9.78211 74.2954 9.86342 74.4987 10.026C74.7426 10.2225 74.8645 10.4868 74.8645 10.8188C74.8645 11.1847 74.7121 11.4659 74.4072 11.6624C74.6172 11.7166 74.7934 11.8114 74.9357 11.947C75.1593 12.1638 75.2711 12.4348 75.2711 12.76C75.2711 13.1666 75.1254 13.485 74.8341 13.7154C74.5834 13.9051 74.2513 14 73.838 14H72.0187V9.78211ZM72.7505 11.4998H73.523C73.7195 11.4998 73.8753 11.4591 73.9905 11.3778C74.126 11.2762 74.1938 11.1305 74.1938 10.9408C74.1938 10.7714 74.126 10.6358 73.9905 10.5342C73.8888 10.4665 73.6923 10.4326 73.401 10.4326H72.7505V11.4998ZM72.7505 13.3495H73.6551C73.9668 13.3495 74.187 13.3021 74.3157 13.2072C74.4783 13.0853 74.5596 12.9294 74.5596 12.7397C74.5596 12.5364 74.4885 12.3772 74.3462 12.262C74.2175 12.1604 73.9973 12.1096 73.6856 12.1096H72.7505V13.3495Z" fill="black"/>
<path d="M32.457 24.5059L31.8574 23.083H29.1234L28.5237 24.5059H27.0906L30.0076 17.7267H31.0443L33.8799 24.5059H32.457ZM29.5401 22.0056H31.4712L30.5056 19.5664L29.5401 22.0056ZM35.7284 23.9367V26.8333H34.4885V20.105H35.7284V20.6742C36.0604 20.1999 36.5381 19.9627 37.1615 19.9627C37.7713 19.9627 38.2727 20.1592 38.6657 20.5522C39.1061 20.9926 39.3263 21.5754 39.3263 22.3004C39.3263 23.0457 39.096 23.6386 38.6352 24.079C38.2287 24.4584 37.7307 24.6481 37.1412 24.6481C36.5517 24.6481 36.0808 24.411 35.7284 23.9367ZM36.8261 21.0604C36.5076 21.0604 36.24 21.1586 36.0232 21.3551C35.7454 21.5923 35.6065 21.9074 35.6065 22.3004C35.6065 22.7001 35.742 23.0186 36.013 23.2557C36.2366 23.4522 36.5076 23.5505 36.8261 23.5505C37.1581 23.5505 37.4359 23.4455 37.6595 23.2354C37.917 22.9983 38.0457 22.6866 38.0457 22.3004C38.0457 21.9209 37.9204 21.6126 37.6697 21.3755C37.4393 21.1654 37.1581 21.0604 36.8261 21.0604ZM41.5249 23.9367V26.8333H40.2849V20.105H41.5249V20.6742C41.8569 20.1999 42.3346 19.9627 42.9579 19.9627C43.5677 19.9627 44.0691 20.1592 44.4621 20.5522C44.9026 20.9926 45.1228 21.5754 45.1228 22.3004C45.1228 23.0457 44.8924 23.6386 44.4316 24.079C44.0251 24.4584 43.5271 24.6481 42.9376 24.6481C42.3481 24.6481 41.8772 24.411 41.5249 23.9367ZM42.6225 21.0604C42.3041 21.0604 42.0364 21.1586 41.8196 21.3551C41.5418 21.5923 41.4029 21.9074 41.4029 22.3004C41.4029 22.7001 41.5384 23.0186 41.8094 23.2557C42.033 23.4522 42.3041 23.5505 42.6225 23.5505C42.9545 23.5505 43.2323 23.4455 43.4559 23.2354C43.7134 22.9983 43.8422 22.6866 43.8422 22.3004C43.8422 21.9209 43.7168 21.6126 43.4661 21.3755C43.2357 21.1654 42.9545 21.0604 42.6225 21.0604ZM52.6612 18.367L51.9701 19.2716C51.6787 18.8854 51.3095 18.6923 50.8623 18.6923C50.537 18.6923 50.2999 18.7736 50.1508 18.9362C50.0017 19.092 49.9272 19.275 49.9272 19.485C49.9272 19.668 49.9984 19.8204 50.1406 19.9424C50.2491 20.044 50.5201 20.1728 50.9537 20.3286C51.6245 20.559 52.0819 20.786 52.3258 21.0096C52.712 21.3551 52.9051 21.8294 52.9051 22.4325C52.9051 23.0965 52.6849 23.6352 52.2445 24.0485C51.8109 24.455 51.2451 24.6583 50.5472 24.6583C49.5715 24.6583 48.7923 24.2314 48.2096 23.3777L49.0735 22.5544C49.2225 22.8594 49.4292 23.0863 49.6934 23.2354C49.9577 23.3845 50.2253 23.459 50.4964 23.459C50.8013 23.459 51.052 23.3743 51.2485 23.2049C51.445 23.0287 51.5432 22.8018 51.5432 22.524C51.5432 22.2868 51.4551 22.0835 51.279 21.9141C51.1163 21.7651 50.7674 21.5991 50.2321 21.4161C49.7307 21.2467 49.3547 21.0502 49.104 20.8266C48.7448 20.515 48.5653 20.0949 48.5653 19.5664C48.5653 19.0175 48.7516 18.55 49.1243 18.1638C49.4969 17.7708 50.0356 17.5743 50.7403 17.5743C51.506 17.5743 52.1463 17.8385 52.6612 18.367ZM55.9764 21.162H55.1226V24.5059H53.8827V21.162H53.3948V20.105H53.8827V18.6008H55.1226V20.105H55.9764V21.162ZM57.1404 20.5827C57.5876 20.1694 58.1805 19.9627 58.9191 19.9627C59.6576 19.9627 60.2505 20.1694 60.6977 20.5827C61.1923 21.0299 61.4396 21.6058 61.4396 22.3105C61.4396 23.0084 61.1923 23.581 60.6977 24.0282C60.2505 24.4415 59.6576 24.6481 58.9191 24.6481C58.1805 24.6481 57.5876 24.4415 57.1404 24.0282C56.6458 23.581 56.3985 23.0084 56.3985 22.3105C56.3985 21.6058 56.6458 21.0299 57.1404 20.5827ZM58.0348 23.1846C58.272 23.4285 58.5667 23.5505 58.9191 23.5505C59.2714 23.5505 59.5661 23.4285 59.8033 23.1846C60.0404 22.9407 60.159 22.6493 60.159 22.3105C60.159 21.965 60.0404 21.6702 59.8033 21.4263C59.5661 21.1824 59.2714 21.0604 58.9191 21.0604C58.5667 21.0604 58.272 21.1824 58.0348 21.4263C57.7977 21.6702 57.6791 21.965 57.6791 22.3105C57.6791 22.6493 57.7977 22.9407 58.0348 23.1846ZM62.3987 24.5059V20.105H63.6386V20.7657C63.7877 20.4811 63.9706 20.2778 64.1875 20.1558C64.3907 20.0271 64.6346 19.9627 64.9192 19.9627C65.0818 19.9627 65.258 19.9966 65.4477 20.0644L65.2851 21.223C65.1293 21.1146 64.9362 21.0604 64.7058 21.0604C64.3467 21.0604 64.0723 21.179 63.8825 21.4161C63.7199 21.6194 63.6386 21.9446 63.6386 22.3918V24.5059H62.3987ZM69.024 23.0931L70.1623 23.2761C70.1149 23.398 70.0505 23.52 69.9692 23.642C69.8947 23.7571 69.7761 23.9028 69.6135 24.079C69.4508 24.2484 69.2306 24.3873 68.9528 24.4957C68.675 24.5973 68.3566 24.6481 67.9975 24.6481C67.3063 24.6481 66.7439 24.4415 66.3103 24.0282C65.8495 23.5945 65.6192 23.022 65.6192 22.3105C65.6192 21.6058 65.8428 21.0299 66.29 20.5827C66.7101 20.1694 67.2623 19.9627 67.9466 19.9627C68.692 19.9627 69.2645 20.2033 69.6643 20.6843C70.0166 21.1044 70.1928 21.6804 70.1928 22.4122V22.5138H66.8998C66.8998 22.8119 66.9709 23.0592 67.1132 23.2557C67.3165 23.5335 67.6112 23.6724 67.9975 23.6724C68.4582 23.6724 68.8004 23.4793 69.024 23.0931ZM66.9404 21.721H69.024C68.9765 21.4365 68.8512 21.2196 68.6479 21.0706C68.4514 20.9147 68.2278 20.8368 67.9771 20.8368C67.7332 20.8368 67.5096 20.9147 67.3063 21.0706C67.1098 21.2264 66.9879 21.4432 66.9404 21.721Z" fill="black"/>
<path d="M19.9001 15.7246C19.9092 15.005 20.0965 14.2995 20.4446 13.6737C20.7927 13.0478 21.2903 12.522 21.8911 12.1451C21.5095 11.5889 21.006 11.1312 20.4206 10.8083C19.8353 10.4854 19.1842 10.3062 18.5191 10.285C17.1004 10.133 15.725 11.1512 15.002 11.1512C14.2651 11.1512 13.152 10.3001 11.9534 10.3252C11.178 10.3508 10.4224 10.5809 9.76018 10.993C9.09791 11.4051 8.55156 11.9853 8.17435 12.6769C6.54039 15.5636 7.75918 19.8059 9.32438 22.1393C10.1075 23.2819 11.0227 24.5581 12.2203 24.5129C13.3921 24.4633 13.8298 23.7504 15.2444 23.7504C16.6458 23.7504 17.0564 24.5129 18.2783 24.4841C19.5357 24.4633 20.328 23.3365 21.0836 22.1831C21.6463 21.3689 22.0793 20.4692 22.3665 19.517C21.6359 19.2018 21.0125 18.674 20.5739 17.9996C20.1353 17.3252 19.901 16.534 19.9001 15.7246Z" fill="black"/>
<path d="M17.5945 8.74947C18.2801 7.90961 18.6179 6.83012 18.5361 5.74023C17.4886 5.8525 16.521 6.36334 15.8261 7.17097C15.4864 7.56552 15.2261 8.02453 15.0603 8.52175C14.8945 9.01898 14.8264 9.54468 14.8598 10.0688C15.3838 10.0743 15.9021 9.95842 16.3758 9.72989C16.8495 9.50136 17.2661 9.16614 17.5945 8.74947Z" fill="black"/>
</svg>
