<svg width="94" height="32" viewBox="0 0 94 32" fill="none" xmlns="http://www.w3.org/2000/svg">
<path d="M31.1582 7.98591C31.5647 7.39642 32.0323 7.25413 32.5201 7.25413C32.7844 7.25413 33.1706 7.29478 33.4348 7.5692C33.5974 7.73182 33.7092 7.98591 33.7092 8.28065C33.7092 8.90063 33.2722 9.42914 32.327 9.42914H31.7172V10.1406H32.327C32.9876 10.1406 34.1361 10.2321 34.1361 11.472C34.1361 11.8379 34.0243 12.2546 33.5873 12.5595C33.3027 12.7526 32.9165 12.8441 32.5506 12.8441C31.7375 12.8441 31.0769 12.3664 30.8025 11.6041L30.0707 11.9294C30.4162 12.7221 31.1785 13.5556 32.5201 13.5556C33.0689 13.5556 33.6381 13.4031 34.065 13.1084C34.4817 12.8136 34.9086 12.2953 34.9086 11.4517C34.9086 10.6284 34.4512 9.90683 33.5466 9.70355C34.0751 9.45963 34.4817 8.96161 34.4817 8.27049C34.4817 7.71149 34.2479 7.28462 33.9532 7.02036C33.4856 6.59349 32.8657 6.54267 32.5201 6.54267C31.8595 6.54267 31.1277 6.71546 30.5789 7.52854L31.1582 7.98591ZM39.3416 9.81535C39.1485 9.56126 38.7115 9.11406 37.8984 9.11406C36.8211 9.11406 35.8454 9.86617 35.8454 11.3196C35.8454 12.8035 36.8312 13.5556 37.8984 13.5556C38.6403 13.5556 39.0977 13.1592 39.3416 12.8441V13.4336H40.0734V9.2157H39.3416V9.81535ZM37.9797 9.76453C38.6302 9.76453 39.3823 10.2422 39.3823 11.3297C39.3823 12.1631 38.8741 12.9051 37.9797 12.9051C37.1056 12.9051 36.5975 12.2241 36.5975 11.3196C36.5975 10.293 37.2581 9.76453 37.9797 9.76453ZM41.4594 13.4336H42.1912V9.8865H43.9596V9.2157H41.4594V13.4336ZM45.4268 12.8441C45.7419 13.2506 46.2196 13.5556 46.9006 13.5556C48.1812 13.5556 48.9231 12.5087 48.9231 11.3501C48.9231 10.2117 48.1913 9.11406 46.8701 9.11406C46.5652 9.11406 45.9249 9.18521 45.4268 9.80519V9.2157H44.6951V15.7712H45.4268V12.8441ZM46.7989 12.9051C45.935 12.9051 45.3862 12.2038 45.3862 11.3399C45.3862 10.3235 46.1078 9.76453 46.7888 9.76453C47.4697 9.76453 48.171 10.3134 48.171 11.3501C48.171 12.1936 47.6527 12.9051 46.7989 12.9051ZM50.0347 15.7712H50.8478L53.9477 9.2157H53.1346L51.7625 12.2343L50.2684 9.2157H49.435L51.3763 13.0372L50.0347 15.7712ZM55.07 10.293C55.1717 10.1101 55.3038 9.9983 55.4156 9.92715C55.629 9.79503 55.8323 9.76453 55.9949 9.76453C56.127 9.76453 56.3608 9.76453 56.5336 9.91699C56.6454 10.0085 56.7165 10.1711 56.7165 10.354C56.7165 10.5471 56.6047 10.6691 56.4929 10.7402C56.432 10.7809 56.2795 10.852 55.9441 10.852H55.5884V11.5228H56.0152C56.2084 11.5228 56.4929 11.5228 56.7064 11.6651C56.8487 11.7566 56.9605 11.9192 56.9605 12.153C56.9605 12.4579 56.808 12.651 56.6657 12.7425C56.4421 12.8949 56.1169 12.9051 55.9543 12.9051C55.7307 12.9051 55.4969 12.8644 55.2631 12.6917C55.0294 12.5189 54.9277 12.3156 54.8871 12.214L54.2569 12.4782C54.3789 12.7425 54.572 13.0169 54.8159 13.1998C55.1717 13.4742 55.568 13.5556 55.9441 13.5556C56.4015 13.5556 56.8385 13.4539 57.1434 13.2303C57.489 12.9762 57.6922 12.5799 57.6922 12.1428C57.6922 11.8176 57.5703 11.5533 57.3975 11.3704C57.2959 11.2586 57.1231 11.1468 56.9096 11.096C57.1231 10.9638 57.3873 10.7097 57.3873 10.2117C57.3873 9.91699 57.2959 9.64257 57.0214 9.40881C56.7064 9.14456 56.3608 9.11406 56.0254 9.11406C55.751 9.11406 55.4258 9.15472 55.1005 9.34783C54.8973 9.46979 54.7041 9.67306 54.5619 9.87633L55.07 10.293ZM58.809 9.2157V13.7283L61.6954 10.6183V13.4336H62.4272V8.89047L59.5407 12.0005V9.2157H58.809ZM66.5759 9.8865V9.2157H63.2015V9.8865H64.5228V13.4336H65.2546V9.8865H66.5759ZM70.3759 12.0209C70.2845 12.2241 70.132 12.4376 69.9389 12.6002C69.695 12.8035 69.4206 12.9051 69.075 12.9051C68.3432 12.9051 67.7436 12.3461 67.7334 11.472H71.0162C71.0366 10.913 70.8841 10.2626 70.6199 9.8865C70.3658 9.52061 69.8474 9.11406 69.0242 9.11406C67.7537 9.11406 66.9813 10.0898 66.9813 11.3501C66.9813 12.9153 68.0485 13.5556 69.0648 13.5556C69.6035 13.5556 70.0812 13.3828 70.4674 13.0372C70.6808 12.8441 70.8638 12.59 70.9857 12.3563L70.3759 12.0209ZM67.7842 10.8622C67.896 10.2321 68.4042 9.76453 69.0242 9.76453C69.6442 9.76453 70.1422 10.2016 70.2641 10.8622H67.7842ZM74.5109 9.2157V13.4336H76.3302C76.6656 13.4336 77.0722 13.3421 77.3262 13.149C77.56 12.9661 77.7633 12.6408 77.7633 12.1936C77.7633 11.8684 77.6616 11.6041 77.4279 11.3805C77.2246 11.1874 77.0213 11.1265 76.8994 11.096C77.1535 10.9333 77.3567 10.6691 77.3567 10.2524C77.3567 9.82552 77.1433 9.58159 76.9908 9.45963C76.6961 9.22586 76.3302 9.2157 76.1066 9.2157H74.5109ZM75.2427 10.9333V9.86617H75.8932C76.1168 9.86617 76.3099 9.85601 76.4827 9.96781C76.5945 10.0491 76.6859 10.1711 76.6859 10.3744C76.6859 10.6284 76.564 10.7504 76.4827 10.8114C76.3201 10.9232 76.0863 10.9333 76.0151 10.9333H75.2427ZM75.2427 12.7831V11.5432H76.1778C76.381 11.5432 76.6554 11.5533 76.8384 11.6956C76.9807 11.8074 77.0518 11.9802 77.0518 12.1733C77.0518 12.3664 76.94 12.5392 76.8079 12.6408C76.625 12.773 76.3505 12.7831 76.1473 12.7831H75.2427Z" fill="black"/>
<path d="M33.7702 21.5177H35.5184C35.4066 22.0056 35.1423 22.3511 34.8781 22.5544C34.502 22.839 33.9938 22.961 33.5466 22.961C32.825 22.961 32.3473 22.6764 32.0424 22.3816C31.7578 22.1072 31.3716 21.5685 31.3716 20.664C31.3716 19.9017 31.6664 19.2512 32.0526 18.8752C32.4693 18.4687 33.0791 18.2755 33.6178 18.2755C33.9328 18.2755 34.2886 18.3467 34.5732 18.489C34.7866 18.6008 35.1322 18.8345 35.3659 19.2919L36.5144 18.6719C36.1587 18.0621 35.681 17.6556 35.244 17.432C34.7256 17.1575 34.1869 17.0762 33.6788 17.0762C32.3677 17.0762 31.5139 17.5946 31.0057 18.1129C30.5992 18.5195 30.0097 19.3224 30.0097 20.6335C30.0097 22.158 30.7821 23.0118 31.0159 23.2455C31.7578 23.9875 32.6319 24.1603 33.4755 24.1603C34.3191 24.1603 35.183 23.9672 35.8843 23.2659C36.8193 22.341 36.8803 20.9181 36.8803 20.4607V20.3794H33.7702V21.5177ZM40.2106 19.4647C39.3772 19.4647 38.808 19.7391 38.432 20.0847C37.995 20.481 37.69 21.0909 37.69 21.8125C37.69 22.5239 37.995 23.1337 38.432 23.5301C38.808 23.8757 39.3772 24.1501 40.2106 24.1501C41.044 24.1501 41.6132 23.8757 41.9892 23.5301C42.4263 23.1337 42.7312 22.5239 42.7312 21.8125C42.7312 21.0909 42.4263 20.481 41.9892 20.0847C41.6132 19.7391 41.044 19.4647 40.2106 19.4647ZM40.2106 23.0524C39.489 23.0524 38.9707 22.4833 38.9707 21.8125C38.9707 21.1214 39.4992 20.5624 40.2106 20.5624C40.9221 20.5624 41.4506 21.1214 41.4506 21.8125C41.4506 22.4833 40.9322 23.0524 40.2106 23.0524ZM45.9872 19.4647C45.1538 19.4647 44.5846 19.7391 44.2086 20.0847C43.7715 20.481 43.4666 21.0909 43.4666 21.8125C43.4666 22.5239 43.7715 23.1337 44.2086 23.5301C44.5846 23.8757 45.1538 24.1501 45.9872 24.1501C46.8206 24.1501 47.3898 23.8757 47.7658 23.5301C48.2029 23.1337 48.5078 22.5239 48.5078 21.8125C48.5078 21.0909 48.2029 20.481 47.7658 20.0847C47.3898 19.7391 46.8206 19.4647 45.9872 19.4647ZM45.9872 23.0524C45.2656 23.0524 44.7472 22.4833 44.7472 21.8125C44.7472 21.1214 45.2757 20.5624 45.9872 20.5624C46.6986 20.5624 47.2271 21.1214 47.2271 21.8125C47.2271 22.4833 46.7088 23.0524 45.9872 23.0524ZM52.8208 20.1761C52.648 19.9119 52.2618 19.4647 51.4385 19.4647C50.849 19.4647 50.3104 19.6781 49.9242 20.0542C49.4973 20.4709 49.2432 21.1112 49.2432 21.8023C49.2432 22.6561 49.6192 23.2252 49.9445 23.5505C50.3714 23.9672 50.8795 24.1501 51.469 24.1501C51.8044 24.1501 52.3939 24.0688 52.8208 23.4183V24.0383C52.8208 24.394 52.7903 24.7396 52.5057 25.014C52.3431 25.1665 52.1093 25.2884 51.7536 25.2884C51.5808 25.2884 51.2454 25.2783 51.0015 25.0547C50.8592 24.9327 50.7474 24.7294 50.6966 24.5262H49.355C49.4566 25.0242 49.7209 25.5425 50.0664 25.8373C50.351 26.0914 50.8592 26.3454 51.7129 26.3454C52.6175 26.3454 53.146 26.0304 53.4509 25.7255C53.9998 25.1766 54.0607 24.4753 54.0607 23.8045V19.607H52.8208V20.1761ZM51.7434 20.5624C52.0788 20.5624 52.3634 20.664 52.6073 20.9181C52.7801 21.101 52.9631 21.3856 52.9631 21.8023C52.9631 22.158 52.8208 22.5138 52.5667 22.7475C52.3533 22.9406 52.0483 23.0524 51.7434 23.0524C51.4487 23.0524 51.1133 22.9508 50.849 22.6662C50.6661 22.4731 50.5238 22.1885 50.5238 21.8023C50.5238 21.3449 50.7169 21.0502 50.9202 20.8673C51.0726 20.725 51.3471 20.5624 51.7434 20.5624ZM55.2434 16.5985V24.0078H56.4833V16.5985H55.2434ZM60.8464 22.5951C60.6431 22.9508 60.2874 23.1744 59.8198 23.1744C59.3422 23.1744 59.0677 22.9406 58.9356 22.7577C58.7933 22.5646 58.7222 22.28 58.7222 22.0157H62.0152V21.9141C62.0152 21.4364 61.9542 20.7453 61.4867 20.1863C61.1818 19.8204 60.6634 19.4647 59.769 19.4647C59.2405 19.4647 58.6307 19.5765 58.1124 20.0847C57.7973 20.3997 57.4416 20.9384 57.4416 21.8125C57.4416 22.5036 57.6448 23.0728 58.1327 23.5301C58.5697 23.9468 59.1084 24.1501 59.8198 24.1501C61.3545 24.1501 61.8526 23.1033 61.9847 22.778L60.8464 22.5951ZM58.7628 21.223C58.8645 20.6335 59.3422 20.3388 59.7995 20.3388C60.2569 20.3388 60.7447 20.6233 60.8464 21.223H58.7628ZM65.5304 17.2287V24.0078H66.8516V21.4974H67.7054C68.488 21.4974 69.047 21.2738 69.423 20.8978C69.9414 20.3794 69.982 19.6476 69.982 19.3834C69.982 18.8955 69.8397 18.2349 69.2909 17.747C68.7929 17.31 68.2644 17.2287 67.5021 17.2287H65.5304ZM66.8516 18.367H67.309C67.6241 18.367 67.9696 18.3873 68.244 18.5805C68.4371 18.7227 68.6201 18.9768 68.6201 19.3529C68.6201 19.6476 68.4981 19.9525 68.2542 20.1456C67.9696 20.3591 67.6444 20.3591 67.3903 20.3591H66.8516V18.367ZM70.7766 16.5985V24.0078H72.0166V16.5985H70.7766ZM76.5727 20.1761C76.156 19.5257 75.4954 19.4647 75.16 19.4647C73.859 19.4647 72.9748 20.5014 72.9748 21.8023C72.9748 23.0931 73.8692 24.1501 75.221 24.1501C75.536 24.1501 76.1255 24.079 76.5727 23.4387V24.0078H77.8127V19.607H76.5727V20.1761ZM75.475 20.5624C76.1865 20.5624 76.6947 21.101 76.6947 21.8023C76.6947 22.5036 76.1865 23.0524 75.475 23.0524C74.7636 23.0524 74.2554 22.5036 74.2554 21.8023C74.2554 21.101 74.7636 20.5624 75.475 20.5624ZM78.9034 26.3353H80.3059L83.853 19.607H82.4504L81.2308 22.1072L79.8689 19.607H78.4257L80.5194 23.3472L78.9034 26.3353Z" fill="black"/>
<path d="M17.248 15.9531L8.96191 24.25C8.90304 24.1167 8.86328 23.9452 8.86328 23.7412V8.09277C8.86329 7.93634 8.88639 7.79915 8.92383 7.68359L17.248 15.9531Z" fill="black" stroke="black" stroke-width="0.725971"/>
<path d="M20.5943 18.9953L17.6953 16.0921V15.9505V15.8797L20.5943 12.9766L20.665 13.0474L24.1297 15.03C25.1196 15.5965 25.1196 16.517 24.1297 17.0834L20.5943 18.9953Z" fill="black"/>
<path d="M20.6598 18.9251L17.69 15.9512L8.85156 24.8022C9.2051 25.1563 9.70006 25.1563 10.3364 24.873L20.6598 18.9251Z" fill="black"/>
<path d="M20.6598 12.977L10.3364 7.09995C9.70006 6.74591 9.2051 6.81672 8.85156 7.17076L17.69 15.951L20.6598 12.977Z" fill="black"/>
<path opacity="0.2" d="M20.5891 18.8555L10.3364 24.6618C9.77077 25.0158 9.27581 24.945 8.92227 24.6618L8.85156 24.7326L8.92227 24.8034C9.27581 25.0866 9.77077 25.1574 10.3364 24.8034L20.5891 18.8555Z" fill="black"/>
<path opacity="0.12" d="M8.85314 24.6612C8.64102 24.4488 8.57031 24.0948 8.57031 23.6699V23.7407C8.57031 24.1656 8.71173 24.5196 8.92385 24.732V24.6612H8.85314Z" fill="black"/>
<path opacity="0.12" d="M24.1291 16.8717L20.5938 18.8543L20.6645 18.9251L24.1291 16.9425C24.6241 16.6593 24.8362 16.3052 24.8362 15.9512C24.8362 16.3052 24.5534 16.5884 24.1291 16.8717Z" fill="black"/>
<path opacity="0.25" d="M10.338 7.17141L24.126 15.0311C24.5503 15.3144 24.8331 15.5976 24.8331 15.9516C24.8331 15.5976 24.621 15.2436 24.126 14.9603L10.338 7.1006C9.3481 6.53413 8.57031 7.02979 8.57031 8.16273V8.23353C8.57031 7.1006 9.3481 6.60494 10.338 7.17141Z" fill="#090909"/>
<path d="M7.45312 5.50781L21.0288 20.1529" stroke="white" stroke-width="0.519946"/>
<path d="M7.78125 25.9951L21.027 12.7695" stroke="white" stroke-width="0.519946"/>
</svg>
