<svg width="90" height="32" viewBox="0 0 90 32" fill="none" xmlns="http://www.w3.org/2000/svg">
<g clip-path="url(#clip0_1_2758)">
<path d="M21.7424 6.3479H11.8574C9.79172 6.3479 8.11719 8.02244 8.11719 10.0881V19.9731C8.11719 22.0388 9.79172 23.7133 11.8574 23.7133H21.7424C23.808 23.7133 25.4826 22.0388 25.4826 19.9731V10.0881C25.4826 8.02244 23.808 6.3479 21.7424 6.3479Z" fill="black"/>
<path d="M12.3528 7.48075C12.2218 7.48093 12.0962 7.53293 12.0037 7.62533C11.9112 7.71773 11.8592 7.84297 11.8594 7.97349C11.8595 8.104 11.9116 8.22913 12.0043 8.32135C12.097 8.41357 12.2227 8.46534 12.3536 8.46528C12.4846 8.46523 12.6102 8.41334 12.7028 8.32104C12.7954 8.22873 12.8474 8.10356 12.8475 7.97305V7.97206C12.8472 7.84155 12.795 7.71647 12.7022 7.62433C12.6094 7.5322 12.4837 7.48054 12.3528 7.48071V7.48075ZM21.1894 7.48075C21.0584 7.48093 20.9329 7.53293 20.8404 7.62533C20.7478 7.71774 20.6959 7.84297 20.6961 7.97349C20.6962 8.10402 20.7483 8.22915 20.841 8.32137C20.9337 8.41359 21.0594 8.46536 21.1904 8.46528C21.3214 8.46521 21.4469 8.41332 21.5395 8.32101C21.6321 8.22871 21.6841 8.10355 21.6841 7.97305V7.97206C21.6839 7.84155 21.6317 7.71647 21.5389 7.62433C21.4461 7.53219 21.3204 7.48054 21.1894 7.48071V7.48075Z" fill="#1D1D1D"/>
<path d="M12.3294 7.90675C12.1577 7.91597 12.1664 8.16568 12.1664 8.16568C13.0891 9.9625 14.7881 10.8438 16.7473 10.8439C18.7039 10.8411 20.4197 9.95002 21.3412 8.15557C21.3412 8.15557 21.3777 7.81766 21.0181 7.93479C20.0731 9.50114 18.4855 10.4278 16.7484 10.4307C15.0081 10.4311 13.4261 9.51423 12.4793 7.9449C12.4182 7.91538 12.369 7.90463 12.3294 7.90675ZM18.5741 14.8911L18.0492 16.4544L17.5381 14.8922H17.0393L17.8447 17.1647H18.233L18.7591 15.6719L19.2846 17.1647H19.6762L20.4798 14.8922H19.9934L19.4816 16.4544L18.9566 14.8911H18.5741ZM15.7858 14.8916L14.7673 17.1636H15.2461L15.4428 16.7238L15.4567 16.6905H16.5149L16.7223 17.1636H17.2142L16.2049 14.9049L16.1959 14.8916L15.7858 14.8916ZM23.1622 14.8919V17.1621H23.6251V14.8919L23.1622 14.8919ZM9.89062 14.8922V17.1656H10.3599V16.2423H11.419V17.1656H11.8883V14.8922H11.419V15.8094H10.3599V14.8922L9.89062 14.8922ZM14.0596 14.8928V16.194C14.0596 16.5637 13.8731 16.761 13.5341 16.761C13.1933 16.761 13.0054 16.5582 13.0054 16.1784V14.8943H12.5365V16.1941C12.5365 16.8337 12.8981 17.2003 13.528 17.2003C14.164 17.2003 14.5286 16.8266 14.5286 16.1753V14.8928L14.0596 14.8928ZM20.858 14.8936V17.1639H22.6039V16.75H21.3206V16.1871H22.1738V15.773H21.3206V15.3078H22.5592V14.8937L20.858 14.8936ZM15.9845 15.467L16.3192 16.2281L16.3418 16.2804H15.6324L15.6548 16.2281L15.9845 15.467Z" fill="white"/>
</g>
<path d="M34.0343 13.0291C35.727 13.0291 37.0777 11.7398 37.0777 10.0033C37.0777 8.25798 35.7183 6.9775 34.0343 6.9775C32.3504 6.9775 30.991 8.25798 30.991 10.0033C30.991 11.7398 32.3417 13.0291 34.0343 13.0291ZM34.0343 7.59143C35.3499 7.59143 36.4111 8.66141 36.4111 10.0033C36.4111 11.3452 35.3499 12.4151 34.0343 12.4151C32.7188 12.4151 31.6576 11.3452 31.6576 10.0033C31.6576 8.66141 32.7188 7.59143 34.0343 7.59143ZM40.4976 9.86296V9.28411H37.5859V9.86296H38.726V12.9238H39.3575V9.86296H40.4976ZM41.1612 9.28411V12.9238H41.7926V11.5118L41.9856 11.3276L43.4064 12.9238H44.2308L42.4592 10.9066L44.0379 9.28411H43.2661L41.7926 10.7751V9.28411H41.1612ZM45.4927 12.4151C45.7645 12.766 46.1767 13.0291 46.7644 13.0291C47.8694 13.0291 48.5097 12.1257 48.5097 11.1259C48.5097 10.1436 47.8782 9.19641 46.7381 9.19641C46.4749 9.19641 45.9224 9.2578 45.4927 9.7928V9.28411H44.8612V14.941H45.4927V12.4151ZM46.6767 12.4678C45.9312 12.4678 45.4576 11.8626 45.4576 11.1171C45.4576 10.2401 46.0803 9.75771 46.6679 9.75771C47.2555 9.75771 47.8607 10.2313 47.8607 11.1259C47.8607 11.8538 47.4134 12.4678 46.6767 12.4678ZM51.1791 13.0291C52.2842 13.0291 53.1086 12.2222 53.1086 11.1171C53.1086 10.0121 52.2929 9.19641 51.1791 9.19641C50.0653 9.19641 49.2496 10.0121 49.2496 11.1171C49.2496 12.2222 50.074 13.0291 51.1791 13.0291ZM51.1791 9.75771C51.8456 9.75771 52.4596 10.2225 52.4596 11.1171C52.4596 12.0029 51.8369 12.4678 51.1791 12.4678C50.5301 12.4678 49.8986 12.0117 49.8986 11.1171C49.8986 10.2313 50.5125 9.75771 51.1791 9.75771ZM54.077 9.28411V13.1782L56.5677 10.4944V12.9238H57.1992V9.00346L54.7084 11.6872V9.28411H54.077ZM54.3927 7.71421C54.5769 8.23167 55.0505 8.56494 55.6644 8.56494C56.2783 8.56494 56.7519 8.23167 56.9361 7.71421L56.4099 7.51249C56.3222 7.81069 56.0766 8.03872 55.6644 8.03872C55.2522 8.03872 55.0066 7.81069 54.9189 7.51249L54.3927 7.71421ZM60.7792 9.86296V9.28411H57.8674V9.86296H59.0076V12.9238H59.639V9.86296H60.7792ZM64.0584 11.7047C63.9794 11.8802 63.8479 12.0643 63.6812 12.2047C63.4707 12.3801 63.2339 12.4678 62.9357 12.4678C62.3043 12.4678 61.7868 11.9854 61.7781 11.2311H64.6109C64.6284 10.7488 64.4969 10.1875 64.2688 9.86296C64.0496 9.54723 63.6023 9.19641 62.8919 9.19641C61.7956 9.19641 61.129 10.0384 61.129 11.1259C61.129 12.4765 62.0499 13.0291 62.927 13.0291C63.3918 13.0291 63.804 12.88 64.1373 12.5818C64.3215 12.4151 64.4793 12.1959 64.5846 11.9942L64.0584 11.7047ZM61.8219 10.7049C61.9184 10.1612 62.3569 9.75771 62.8919 9.75771C63.4269 9.75771 63.8566 10.1348 63.9619 10.7049H61.8219ZM67.6265 9.28411V12.9238H69.1964C69.4859 12.9238 69.8367 12.8449 70.0559 12.6783C70.2577 12.5204 70.4331 12.2397 70.4331 11.8538C70.4331 11.5732 70.3454 11.3452 70.1436 11.1522C69.9682 10.9856 69.7928 10.9329 69.6876 10.9066C69.9068 10.7663 70.0822 10.5383 70.0822 10.1787C70.0822 9.81034 69.8981 9.59985 69.7665 9.4946C69.5122 9.29288 69.1964 9.28411 69.0035 9.28411H67.6265ZM68.258 10.7663V9.84542H68.8193C69.0123 9.84542 69.1789 9.83665 69.328 9.93312C69.4245 10.0033 69.5034 10.1085 69.5034 10.2839C69.5034 10.5032 69.3982 10.6084 69.328 10.6611C69.1877 10.7575 68.9859 10.7663 68.9246 10.7663H68.258ZM68.258 12.3625V11.2925H69.0649C69.2403 11.2925 69.4771 11.3013 69.635 11.4241C69.7577 11.5206 69.8191 11.6697 69.8191 11.8363C69.8191 12.0029 69.7227 12.152 69.6086 12.2397C69.4508 12.3538 69.214 12.3625 69.0386 12.3625H68.258Z" fill="black"/>
<path d="M35.8648 22.7207H37.2681L34.4716 16.0352H33.4492L30.5725 22.7207H31.9858L32.5772 21.3174H35.2735L35.8648 22.7207ZM32.9882 20.255L33.9404 17.8494L34.8926 20.255H32.9882ZM39.0911 22.1594C39.5722 22.8109 40.1836 22.861 40.4843 22.861C41.1258 22.861 41.627 22.6104 41.9578 22.2997C42.2083 22.0592 42.6394 21.5279 42.6394 20.5456C42.6394 19.6836 42.3086 19.1424 41.9878 18.8216C41.4967 18.3305 40.8853 18.2403 40.5044 18.2403C39.7025 18.2403 39.2815 18.6713 39.0911 18.9419V18.3806H37.8683V25.016H39.0911V22.1594ZM40.1736 19.3228C40.4643 19.3228 40.785 19.4331 41.0056 19.6335C41.2461 19.8641 41.3764 20.2249 41.3764 20.5456C41.3764 20.8664 41.2561 21.2272 40.9955 21.4678C40.8352 21.6181 40.5745 21.7785 40.1736 21.7785C39.7927 21.7785 39.5321 21.6282 39.3718 21.4878C39.1312 21.2773 38.9708 20.9466 38.9708 20.5456C38.9708 20.1447 39.1111 19.844 39.3818 19.6135C39.6023 19.413 39.8529 19.3228 40.1736 19.3228ZM44.8075 22.1594C45.2886 22.8109 45.9001 22.861 46.2008 22.861C46.8423 22.861 47.3434 22.6104 47.6742 22.2997C47.9248 22.0592 48.3558 21.5279 48.3558 20.5456C48.3558 19.6836 48.025 19.1424 47.7043 18.8216C47.2131 18.3305 46.6017 18.2403 46.2208 18.2403C45.4189 18.2403 44.998 18.6713 44.8075 18.9419V18.3806H43.5847V25.016H44.8075V22.1594ZM45.89 19.3228C46.1807 19.3228 46.5015 19.4331 46.722 19.6335C46.9625 19.8641 47.0928 20.2249 47.0928 20.5456C47.0928 20.8664 46.9726 21.2272 46.7119 21.4678C46.5516 21.6181 46.291 21.7785 45.89 21.7785C45.5092 21.7785 45.2485 21.6282 45.0882 21.4878C44.8476 21.2773 44.6872 20.9466 44.6872 20.5456C44.6872 20.1447 44.8276 19.844 45.0982 19.6135C45.3187 19.413 45.5693 19.3228 45.89 19.3228ZM52.8694 20.265H54.5934C54.4831 20.7461 54.2225 21.0869 53.9619 21.2874C53.5911 21.568 53.0899 21.6883 52.6489 21.6883C51.9372 21.6883 51.4661 21.4076 51.1654 21.117C50.8848 20.8463 50.5039 20.3151 50.5039 19.423C50.5039 18.6713 50.7946 18.0298 51.1755 17.6589C51.5864 17.258 52.1878 17.0676 52.719 17.0676C53.0298 17.0676 53.3806 17.1377 53.6612 17.278C53.8717 17.3883 54.2125 17.6188 54.4431 18.0699L55.5757 17.4585C55.2249 16.8571 54.7538 16.4561 54.3228 16.2356C53.8116 15.965 53.2803 15.8848 52.7792 15.8848C51.4862 15.8848 50.6442 16.396 50.1431 16.9072C49.7421 17.3081 49.1608 18.1 49.1608 19.393C49.1608 20.8965 49.9225 21.7384 50.1531 21.969C50.8848 22.7007 51.7468 22.8711 52.5787 22.8711C53.4107 22.8711 54.2626 22.6806 54.9542 21.989C55.8764 21.0769 55.9365 19.6736 55.9365 19.2226V19.1424H52.8694V20.265ZM60.2834 18.9419C59.8724 18.3004 59.2209 18.2403 58.8901 18.2403C57.6071 18.2403 56.7351 19.2627 56.7351 20.5456C56.7351 21.8186 57.6172 22.861 58.9503 22.861C59.261 22.861 59.8423 22.7909 60.2834 22.1594V22.7207H61.5062V18.3806H60.2834V18.9419ZM59.2008 19.3228C59.9025 19.3228 60.4036 19.854 60.4036 20.5456C60.4036 21.2373 59.9025 21.7785 59.2008 21.7785C58.4992 21.7785 57.998 21.2373 57.998 20.5456C57.998 19.854 58.4992 19.3228 59.2008 19.3228ZM62.672 15.4137V22.7207H63.8949V15.4137H62.672ZM65.0604 15.4137V22.7207H66.2832V15.4137H65.0604ZM70.5861 21.3275C70.3856 21.6783 70.0348 21.8988 69.5737 21.8988C69.1026 21.8988 68.832 21.6683 68.7017 21.4878C68.5614 21.2974 68.4912 21.0167 68.4912 20.7561H71.7387V20.6559C71.7387 20.1848 71.6786 19.5032 71.2175 18.9519C70.9168 18.5911 70.4056 18.2403 69.5236 18.2403C69.0024 18.2403 68.401 18.3505 67.8898 18.8517C67.5791 19.1624 67.2283 19.6937 67.2283 20.5557C67.2283 21.2373 67.4287 21.7986 67.9098 22.2496C68.3408 22.6606 68.8721 22.861 69.5737 22.861C71.0872 22.861 71.5784 21.8286 71.7087 21.5079L70.5861 21.3275ZM68.5313 19.9743C68.6315 19.393 69.1026 19.1023 69.5537 19.1023C70.0047 19.1023 70.4858 19.3829 70.5861 19.9743H68.5313ZM72.6856 22.7207H73.9084V20.6359C73.9084 20.3352 73.9184 19.9643 74.149 19.6736C74.3895 19.3729 74.7303 19.3228 74.9609 19.3228C75.2114 19.3228 75.3718 19.3729 75.5322 19.4832L75.6926 18.3405C75.5522 18.2904 75.3818 18.2403 75.1713 18.2403C74.8807 18.2403 74.6401 18.3104 74.4497 18.4307C74.3595 18.4808 74.0988 18.6613 73.9084 19.0321V18.3806H72.6856V22.7207ZM76.5107 25.016H77.8939L81.3921 18.3806H80.0088L78.806 20.8463L77.4629 18.3806H76.0396L78.1044 22.0692L76.5107 25.016Z" fill="black"/>
<defs>
<clipPath id="clip0_1_2758">
<rect width="17.5408" height="17.5408" fill="white" transform="translate(8 6.2561)"/>
</clipPath>
</defs>
</svg>
