<svg width="72" height="72" viewBox="0 0 72 72" fill="none" xmlns="http://www.w3.org/2000/svg">
<rect width="72" height="72" rx="36" fill="black"/>
<path d="M41.7071 30.2929C42.0976 30.6834 42.0976 31.3166 41.7071 31.7071L31.7071 41.7071C31.3166 42.0976 30.6834 42.0976 30.2929 41.7071C29.9024 41.3166 29.9024 40.6834 30.2929 40.2929L40.2929 30.2929C40.6834 29.9024 41.3166 29.9024 41.7071 30.2929Z" fill="white"/>
<path d="M32 34C33.1046 34 34 33.1046 34 32C34 30.8954 33.1046 30 32 30C30.8954 30 30 30.8954 30 32C30 33.1046 30.8954 34 32 34Z" fill="white"/>
<path d="M42 40C42 41.1046 41.1046 42 40 42C38.8954 42 38 41.1046 38 40C38 38.8954 38.8954 38 40 38C41.1046 38 42 38.8954 42 40Z" fill="white"/>
<path fill-rule="evenodd" clip-rule="evenodd" d="M33.7056 16.1021C34.8864 14.6326 37.1136 14.6326 38.2944 16.1021L40.0355 18.2687C40.7692 19.1817 41.9689 19.5738 43.096 19.269L45.7705 18.5456C47.5845 18.055 49.3863 19.3719 49.483 21.2589L49.6255 24.0412C49.6856 25.2136 50.4271 26.2402 51.517 26.66L54.1035 27.6562C55.8577 28.3318 56.5459 30.4625 55.5215 32.0463L54.0111 34.3815C53.3746 35.3655 53.3746 36.6345 54.0111 37.6185L55.5215 39.9537C56.5459 41.5375 55.8577 43.6682 54.1035 44.3438L51.517 45.34C50.4271 45.7598 49.6856 46.7864 49.6255 47.9588L49.483 50.7411C49.3863 52.6281 47.5845 53.945 45.7705 53.4544L43.096 52.731C41.9689 52.4262 40.7692 52.8183 40.0355 53.7313L38.2944 55.8979C37.1136 57.3674 34.8864 57.3674 33.7056 55.8979L31.9645 53.7313C31.2308 52.8183 30.0311 52.4262 28.904 52.731L26.2295 53.4544C24.4155 53.945 22.6137 52.6281 22.517 50.7411L22.3745 47.9588C22.3144 46.7864 21.5729 45.7598 20.483 45.34L17.8965 44.3438C16.1423 43.6682 15.4541 41.5375 16.4785 39.9537L17.9889 37.6185C18.6254 36.6345 18.6254 35.3655 17.9889 34.3815L16.4785 32.0463C15.4541 30.4625 16.1423 28.3318 17.8965 27.6562L20.483 26.66C21.5729 26.2402 22.3144 25.2136 22.3745 24.0412L22.517 21.2589C22.6137 19.3719 24.4155 18.055 26.2295 18.5456L28.904 19.269C30.0311 19.5738 31.2308 19.1817 31.9645 18.2687L33.7056 16.1021ZM36.7648 17.3459L38.5059 19.5125C39.7287 21.0342 41.7283 21.6877 43.6067 21.1797L46.2812 20.4563C46.8859 20.2928 47.4865 20.7317 47.5187 21.3607L47.6613 24.143C47.7614 26.0971 48.9972 27.8081 50.8137 28.5077L53.4002 29.5039C53.9849 29.7291 54.2143 30.4393 53.8729 30.9672L52.3624 33.3025C51.3017 34.9425 51.3017 37.0575 52.3624 38.6975L53.8729 41.0328C54.2143 41.5607 53.9849 42.2709 53.4002 42.4961L50.8137 43.4923C48.9972 44.1919 47.7614 45.9029 47.6613 47.857L47.5187 50.6393C47.4865 51.2683 46.8859 51.7072 46.2812 51.5437L43.6067 50.8203C41.7283 50.3123 39.7287 50.9658 38.5059 52.4875L36.7648 54.6541C36.3712 55.1439 35.6288 55.1439 35.2352 54.6541L33.4941 52.4875C32.2713 50.9658 30.2717 50.3123 28.3933 50.8203L25.7188 51.5437C25.1141 51.7072 24.5135 51.2683 24.4813 50.6393L24.3387 47.857C24.2386 45.9029 23.0028 44.1919 21.1863 43.4923L18.5998 42.4961C18.0151 42.2709 17.7857 41.5607 18.1271 41.0328L19.6375 38.6975C20.6983 37.0575 20.6983 34.9425 19.6375 33.3025L18.1271 30.9672C17.7857 30.4393 18.0151 29.7291 18.5998 29.5039L21.1863 28.5077C23.0028 27.8081 24.2386 26.0971 24.3387 24.143L24.4813 21.3607C24.5135 20.7317 25.1141 20.2928 25.7188 20.4563L28.3933 21.1797C30.2717 21.6877 32.2713 21.0342 33.4941 19.5125L35.2352 17.3459C35.6288 16.8561 36.3712 16.8561 36.7648 17.3459Z" fill="white"/>
</svg>
