<svg width="72" height="72" viewBox="0 0 72 72" fill="none" xmlns="http://www.w3.org/2000/svg">
<rect width="72" height="72" rx="36" fill="black"/>
<path fill-rule="evenodd" clip-rule="evenodd" d="M36 23.8891C34.8666 22.1953 33.4817 20.7828 32.0874 19.921C31.1982 19.3713 30.2304 19 29.2759 19C28.2723 19 27.3536 19.4144 26.6848 20.2864C26.0633 21.0966 25.8589 22.0662 26.0959 23.0181C26.2807 23.7602 26.7175 24.434 27.3306 25H23C21.3431 25 20 26.3431 20 28V32C20 33.6569 21.3431 35 23 35V49C23 50.6569 24.3431 52 26 52H46C47.6569 52 49 50.6569 49 49V35C50.6569 35 52 33.6569 52 32V28C52 26.3431 50.6569 25 49 25H44.6694C45.2825 24.434 45.7193 23.7602 45.9041 23.0181C46.1411 22.0662 45.9367 21.0966 45.3152 20.2864C44.6464 19.4144 43.7277 19 42.7241 19C41.7696 19 40.8018 19.3713 39.9126 19.921C38.5183 20.7828 37.1334 22.1953 36 23.8891ZM38.3882 25H38.2254C38.0454 24.9989 37.861 24.9943 37.6725 24.9859C38.6734 23.4938 39.8595 22.305 40.9642 21.6222C41.6727 21.1842 42.2732 21 42.7242 21C43.1261 21 43.4502 21.1411 43.7283 21.5037C43.9896 21.8442 44.049 22.1907 43.9633 22.5348C43.8717 22.9027 43.5877 23.3574 42.9957 23.7904C42.0937 24.4501 40.5596 24.9869 38.3882 25ZM34.3275 24.9859C34.139 24.9943 33.9546 24.9989 33.7746 25H33.6118C31.4404 24.9869 29.9063 24.4501 29.0043 23.7904C28.4123 23.3574 28.1283 22.9027 28.0367 22.5348C27.951 22.1907 28.0104 21.8442 28.2717 21.5037C28.5498 21.1411 28.8739 21 29.2758 21C29.7268 21 30.3273 21.1842 31.0358 21.6222C32.1405 22.305 33.3266 23.4938 34.3275 24.9859ZM23 27H35V33H23C22.4477 33 22 32.5523 22 32V28C22 27.4477 22.4477 27 23 27ZM25 35V49C25 49.5523 25.4477 50 26 50H35L35 35H25ZM37 35V50H46C46.5523 50 47 49.5523 47 49V35H37ZM49 33C49.5523 33 50 32.5523 50 32V28C50 27.4477 49.5523 27 49 27H37V33H49Z" fill="white"/>
</svg>
