<svg width="72" height="72" viewBox="0 0 72 72" fill="none" xmlns="http://www.w3.org/2000/svg">
<rect width="72" height="72" rx="36" fill="black"/>
<path d="M39.8089 19.9536C47.0854 21.6883 52.237 28.1163 52.3197 35.5645C52.4025 43.0126 47.3954 49.5827 40.1596 51.5203" stroke="white" stroke-width="2" stroke-linecap="round" stroke-linejoin="round"/>
<path d="M41.5534 24.2178L39.0534 19.8877L43.3835 17.3877" stroke="white" stroke-width="2" stroke-linecap="round" stroke-linejoin="round"/>
<path d="M32.1909 52.0474C24.9143 50.3126 19.7628 43.8846 19.68 36.4365C19.5973 28.9884 24.6044 22.4183 31.8401 20.4807" stroke="white" stroke-width="2" stroke-linecap="round" stroke-linejoin="round"/>
<path d="M30.4463 47.7832L32.9463 52.1133L28.6162 54.6133" stroke="white" stroke-width="2" stroke-linecap="round" stroke-linejoin="round"/>
<path d="M39.9849 30.5951V33.5614C38.9695 32.6266 37.8297 32.1592 36.5653 32.1592C35.4925 32.1592 34.6017 32.4918 33.8929 33.1569C33.2033 33.8041 32.8584 34.676 32.8584 35.7726C32.8584 36.9052 33.2224 37.8131 33.9504 38.4962C34.64 39.1075 35.4925 39.4131 36.5079 39.4131C37.9063 39.4131 39.0653 38.9277 39.9849 37.9569V40.8962C38.9695 41.4895 37.7435 41.7861 36.3067 41.7861C34.3718 41.7861 32.8393 41.2288 31.709 40.1142C30.5596 38.9996 29.9849 37.5794 29.9849 35.8535C29.9849 34.0738 30.5979 32.6086 31.8239 31.458C33.0117 30.3434 34.6305 29.7861 36.6803 29.7861C37.8488 29.7861 38.9504 30.0558 39.9849 30.5951Z" fill="white"/>
</svg>
