<svg width="72" height="72" viewBox="0 0 72 72" fill="none" xmlns="http://www.w3.org/2000/svg">
<rect width="72" height="72" rx="36" fill="black"/>
<path d="M29 35.6742V38.1461C28.1877 37.367 27.2759 36.9775 26.2644 36.9775C25.4061 36.9775 24.6935 37.2547 24.1264 37.809C23.5747 38.3483 23.2989 39.0749 23.2989 39.9888C23.2989 40.9326 23.59 41.6891 24.1724 42.2584C24.7241 42.7678 25.4061 43.0225 26.2184 43.0225C27.3372 43.0225 28.2644 42.618 29 41.809V44.2584C28.1877 44.7528 27.2069 45 26.0575 45C24.5096 45 23.2835 44.5356 22.3793 43.6067C21.4598 42.6779 21 41.4944 21 40.0562C21 38.573 21.4904 37.3521 22.4713 36.3933C23.4215 35.4644 24.7165 35 26.3563 35C27.2912 35 28.1724 35.2247 29 35.6742Z" fill="white"/>
<path fill-rule="evenodd" clip-rule="evenodd" d="M31.0345 24.5H31V30.1994C29.4999 29.4326 27.8004 29 26 29C19.9249 29 15 33.9249 15 40C15 46.0751 19.9249 51 26 51C28.6515 51 31.0839 50.0619 32.9833 48.4994C33.4377 48.8512 33.946 49.1621 34.4817 49.43C36.4575 50.4178 39.117 51 42 51C44.883 51 47.5425 50.4178 49.5183 49.43C51.2682 48.555 52.7261 47.2208 52.9655 45.5H53V24.5H52.9655C52.7261 22.7792 51.2682 21.445 49.5183 20.57C47.5425 19.5822 44.883 19 42 19C39.117 19 36.4575 19.5822 34.4817 20.57C32.7318 21.445 31.2739 22.7792 31.0345 24.5ZM34.4205 47.0782C34.6941 47.2701 35.0115 47.4588 35.3761 47.6411C37.0197 48.4629 39.3602 49 42 49C44.6398 49 46.9803 48.4629 48.6239 47.6411C50.3272 46.7894 51 45.7979 51 45V43.5123C50.5499 43.8588 50.0474 44.1654 49.5183 44.43C47.5425 45.4178 44.883 46 42 46C39.7186 46 37.5772 45.6355 35.8037 44.9938C35.4218 45.7422 34.9566 46.4411 34.4205 47.0782ZM36.5467 43.1355C38.0547 43.6716 39.9358 44 42 44C44.6398 44 46.9803 43.4629 48.6239 42.6411C50.3272 41.7894 51 40.7979 51 40V38.5123C50.5499 38.8588 50.0474 39.1654 49.5183 39.43C47.5425 40.4178 44.883 41 42 41C40.2082 41 38.5026 40.7751 36.994 40.3677C36.9625 41.3264 36.8083 42.2541 36.5467 43.1355ZM36.8603 38.2422C38.3121 38.7149 40.0766 39 42 39C44.6398 39 46.9803 38.4629 48.6239 37.6411C50.3272 36.7894 51 35.7979 51 35V33.5123C50.5499 33.8588 50.0474 34.1654 49.5183 34.43C47.5425 35.4178 44.883 36 42 36C39.7153 36 37.5709 35.6344 35.796 34.991C36.3104 35.9951 36.6751 37.0887 36.8603 38.2422ZM35.3761 22.3589C33.6728 23.2106 33 24.2021 33 25C33 25.7979 33.6728 26.7894 35.3761 27.6411C37.0197 28.4629 39.3602 29 42 29C44.6398 29 46.9803 28.4629 48.6239 27.6411C50.3272 26.7894 51 25.7979 51 25C51 24.2021 50.3272 23.2106 48.6239 22.3589C46.9803 21.5371 44.6398 21 42 21C39.3602 21 37.0197 21.5371 35.3761 22.3589ZM33 30C33 30.7979 33.6728 31.7894 35.3761 32.6411C37.0197 33.4629 39.3602 34 42 34C44.6398 34 46.9803 33.4629 48.6239 32.6411C50.3272 31.7894 51 30.7979 51 30V28.5123C50.5499 28.8588 50.0474 29.1654 49.5183 29.43C47.5425 30.4178 44.883 31 42 31C39.117 31 36.4575 30.4178 34.4817 29.43C33.9526 29.1654 33.4501 28.8588 33 28.5123V30ZM26 49C30.9706 49 35 44.9706 35 40C35 35.0294 30.9706 31 26 31C21.0294 31 17 35.0294 17 40C17 44.9706 21.0294 49 26 49Z" fill="white"/>
</svg>
