<svg width="72" height="72" viewBox="0 0 72 72" fill="none" xmlns="http://www.w3.org/2000/svg">
<rect width="72" height="72" rx="36" fill="black"/>
<path d="M36 14C35.4477 14 35 14.4477 35 15C35 15.5523 35.4477 16 36 16C47.0457 16 56 24.9543 56 36C56 47.0457 47.0457 56 36 56C35.4477 56 35 56.4477 35 57C35 57.5523 35.4477 58 36 58C48.1503 58 58 48.1503 58 36C58 23.8497 48.1503 14 36 14Z" fill="white"/>
<path d="M30 17C30.5523 17 31 16.5523 31 16C31 15.4477 30.5523 15 30 15C29.4477 15 29 15.4477 29 16C29 16.5523 29.4477 17 30 17Z" fill="white"/>
<path d="M25 19C25 19.5523 24.5523 20 24 20C23.4477 20 23 19.5523 23 19C23 18.4477 23.4477 18 24 18C24.5523 18 25 18.4477 25 19Z" fill="white"/>
<path d="M19 25C19.5523 25 20 24.5523 20 24C20 23.4477 19.5523 23 19 23C18.4477 23 18 23.4477 18 24C18 24.5523 18.4477 25 19 25Z" fill="white"/>
<path d="M25 53C25 52.4477 24.5523 52 24 52C23.4477 52 23 52.4477 23 53C23 53.5523 23.4477 54 24 54C24.5523 54 25 53.5523 25 53Z" fill="white"/>
<path d="M30 55C30.5523 55 31 55.4477 31 56C31 56.5523 30.5523 57 30 57C29.4477 57 29 56.5523 29 56C29 55.4477 29.4477 55 30 55Z" fill="white"/>
<path d="M20 48C20 47.4477 19.5523 47 19 47C18.4477 47 18 47.4477 18 48C18 48.5523 18.4477 49 19 49C19.5523 49 20 48.5523 20 48Z" fill="white"/>
<path d="M16 39C16.5523 39 17 39.4477 17 40C17 40.5523 16.5523 41 16 41C15.4477 41 15 40.5523 15 40C15 39.4477 15.4477 39 16 39Z" fill="white"/>
<path d="M17 31C17 31.5523 16.5523 32 16 32C15.4477 32 15 31.5523 15 31C15 30.4477 15.4477 30 16 30C16.5523 30 17 30.4477 17 31Z" fill="white"/>
<path fill-rule="evenodd" clip-rule="evenodd" d="M40.9289 31.225C40.2615 31.225 39.7285 31.42 39.3299 31.81C38.9399 32.1913 38.7449 32.681 38.7449 33.279C38.7449 33.877 38.9399 34.371 39.3299 34.761C39.7285 35.1423 40.2615 35.333 40.9289 35.333C41.5962 35.333 42.1249 35.1423 42.5149 34.761C42.9135 34.371 43.1129 33.877 43.1129 33.279C43.1129 32.681 42.9135 32.1913 42.5149 31.81C42.1249 31.42 41.5962 31.225 40.9289 31.225ZM40.9289 34.397C40.6082 34.397 40.3439 34.293 40.1359 34.085C39.9365 33.877 39.8369 33.6083 39.8369 33.279C39.8369 32.9496 39.9365 32.681 40.1359 32.473C40.3439 32.265 40.6082 32.161 40.9289 32.161C41.2495 32.161 41.5095 32.265 41.7089 32.473C41.9169 32.681 42.0209 32.9496 42.0209 33.279C42.0209 33.6083 41.9169 33.877 41.7089 34.085C41.5095 34.293 41.2495 34.397 40.9289 34.397Z" fill="white"/>
<path d="M45.6219 31.043L40.4609 39.961L41.1499 40.364L46.3109 31.433L45.6219 31.043Z" fill="white"/>
<path fill-rule="evenodd" clip-rule="evenodd" d="M45.8429 36.022C45.1755 36.022 44.6425 36.217 44.2439 36.607C43.8539 36.9883 43.6589 37.478 43.6589 38.076C43.6589 38.674 43.8539 39.168 44.2439 39.558C44.6425 39.9393 45.1755 40.13 45.8429 40.13C46.5102 40.13 47.0389 39.9393 47.4289 39.558C47.8275 39.168 48.0269 38.674 48.0269 38.076C48.0269 37.478 47.8275 36.9883 47.4289 36.607C47.0389 36.217 46.5102 36.022 45.8429 36.022ZM45.8429 39.194C45.5222 39.194 45.2579 39.09 45.0499 38.882C44.8505 38.674 44.7509 38.4053 44.7509 38.076C44.7509 37.7466 44.8505 37.478 45.0499 37.27C45.2579 37.062 45.5222 36.958 45.8429 36.958C46.1635 36.958 46.4235 37.062 46.6229 37.27C46.8309 37.478 46.9349 37.7466 46.9349 38.076C46.9349 38.4053 46.8309 38.674 46.6229 38.882C46.4235 39.09 46.1635 39.194 45.8429 39.194Z" fill="white"/>
<path fill-rule="evenodd" clip-rule="evenodd" d="M37.0242 38.999C36.3742 39.7963 35.5855 40.195 34.6582 40.195C33.7309 40.195 32.9379 39.7963 32.2792 38.999C31.6292 38.193 31.3042 37.0793 31.3042 35.658C31.3042 34.2453 31.6292 33.1403 32.2792 32.343C32.9379 31.537 33.7309 31.134 34.6582 31.134C35.5855 31.134 36.3742 31.537 37.0242 32.343C37.6829 33.1403 38.0122 34.2496 38.0122 35.671C38.0122 37.0836 37.6829 38.193 37.0242 38.999ZM35.8022 33.357C35.4642 32.8456 35.0829 32.59 34.6582 32.59C34.2335 32.59 33.8479 32.8456 33.5012 33.357C33.1632 33.8596 32.9942 34.6266 32.9942 35.658C32.9942 36.6893 33.1632 37.4606 33.5012 37.972C33.8392 38.4833 34.2249 38.739 34.6582 38.739C35.0915 38.739 35.4772 38.4833 35.8152 37.972C36.1532 37.4606 36.3222 36.6893 36.3222 35.658C36.3222 34.6266 36.1489 33.8596 35.8022 33.357Z" fill="white"/>
<path d="M29.7135 31.329V32.785H26.8275L26.5155 34.15C26.7409 34.1153 26.9359 34.098 27.1005 34.098C28.0279 34.098 28.7732 34.3883 29.3365 34.969C29.8479 35.489 30.1035 36.1823 30.1035 37.049C30.1035 37.9676 29.8089 38.7216 29.2195 39.311C28.6302 39.9003 27.8372 40.195 26.8405 40.195C26.0865 40.195 25.4625 40.0736 24.9685 39.831C24.5959 39.649 24.2449 39.402 23.9155 39.09L24.4745 37.634C24.7259 37.972 25.0249 38.232 25.3715 38.414C25.7702 38.6306 26.1905 38.739 26.6325 38.739C27.1872 38.739 27.6292 38.5656 27.9585 38.219C28.2619 37.8983 28.4135 37.478 28.4135 36.958C28.4135 36.464 28.2445 36.0653 27.9065 35.762C27.5685 35.4673 27.1179 35.32 26.5545 35.32C25.9305 35.32 25.3065 35.5063 24.6825 35.879L25.7095 31.329H29.7135Z" fill="white"/>
</svg>
