<svg width="72" height="72" viewBox="0 0 72 72" fill="none" xmlns="http://www.w3.org/2000/svg">
<rect width="72" height="72" rx="36" fill="#E4E4E4"/>
<path fill-rule="evenodd" clip-rule="evenodd" d="M35.1094 32.7454C35.4806 32.0181 36.5197 32.0181 36.8909 32.7454L38.1671 35.2461C38.3124 35.5308 38.585 35.7289 38.9007 35.7791L41.6734 36.2201C42.4798 36.3484 42.8009 37.3367 42.2239 37.9144L40.2399 39.9009C40.0141 40.127 39.9099 40.4476 39.9597 40.7633L40.3971 43.5366C40.5243 44.3431 39.6837 44.9539 38.9559 44.5837L36.4536 43.3107C36.1687 43.1658 35.8316 43.1658 35.5467 43.3107L33.0444 44.5837C32.3166 44.9539 31.4759 44.3431 31.6032 43.5366L32.0406 40.7633C32.0904 40.4476 31.9862 40.127 31.7603 39.9009L29.7764 37.9144C29.1994 37.3367 29.5205 36.3484 30.3269 36.2201L33.0996 35.7791C33.4153 35.7289 33.6879 35.5308 33.8332 35.2461L35.1094 32.7454ZM35.6147 36.1552L36.0001 35.3999L36.3856 36.1552C36.8215 37.0094 37.6395 37.6037 38.5866 37.7543L39.4241 37.8875L38.8248 38.4876C38.1472 39.1661 37.8347 40.1277 37.9841 41.0749L38.1163 41.9126L37.3604 41.5281C36.5057 41.0933 35.4946 41.0933 34.6399 41.5281L33.884 41.9126L34.0162 41.0749C34.1656 40.1277 33.8531 39.1661 33.1755 38.4876L32.5762 37.8875L33.4137 37.7543C34.3608 37.6037 35.1788 37.0094 35.6147 36.1552Z" fill="black"/>
<path fill-rule="evenodd" clip-rule="evenodd" d="M27 17C27.5523 17 28 17.4477 28 18V20H35V18C35 17.4477 35.4477 17 36 17C36.5523 17 37 17.4477 37 18V20H44V18C44 17.4477 44.4477 17 45 17C45.5523 17 46 17.4477 46 18V20H48C49.6569 20 51 21.3431 51 23V49C51 50.6569 49.6569 52 48 52H24C22.3431 52 21 50.6569 21 49V23C21 21.3431 22.3431 20 24 20H26V18C26 17.4477 26.4477 17 27 17ZM23 29V49C23 49.5523 23.4477 50 24 50H48C48.5523 50 49 49.5523 49 49V29H23ZM49 27H23V23C23 22.4477 23.4477 22 24 22H26V24C26 24.5523 26.4477 25 27 25C27.5523 25 28 24.5523 28 24V22H35V24C35 24.5523 35.4477 25 36 25C36.5523 25 37 24.5523 37 24V22H44V24C44 24.5523 44.4477 25 45 25C45.5523 25 46 24.5523 46 24V22H48C48.5523 22 49 22.4477 49 23V27Z" fill="black"/>
</svg>
