<svg width="72" height="72" viewBox="0 0 72 72" fill="none" xmlns="http://www.w3.org/2000/svg">
<rect width="72" height="72" rx="36" fill="#E4E4E4"/>
<path d="M39 27C38.4477 27 38 27.4477 38 28C38 28.5523 38.4477 29 39 29H47C47.5523 29 48 28.5523 48 28C48 27.4477 47.5523 27 47 27H39Z" fill="black"/>
<path d="M38 33C38 32.4477 38.4477 32 39 32H47C47.5523 32 48 32.4477 48 33C48 33.5523 47.5523 34 47 34H39C38.4477 34 38 33.5523 38 33Z" fill="black"/>
<path d="M44.5548 41.832C45.0143 41.5257 45.1385 40.9048 44.8322 40.4453C44.5258 39.9858 43.9049 39.8616 43.4454 40.1679L38.1275 43.7132L34.7072 40.2929C34.3701 39.9558 33.842 39.9035 33.4454 40.1679L27.4454 44.1679C26.9859 44.4743 26.8617 45.0952 27.1681 45.5547C27.4744 46.0142 28.0953 46.1384 28.5548 45.832L33.8727 42.2868L37.293 45.7071C37.6301 46.0442 38.1582 46.0965 38.5548 45.832L44.5548 41.832Z" fill="black"/>
<path fill-rule="evenodd" clip-rule="evenodd" d="M30 25C26.6863 25 24 27.6863 24 31C24 34.3137 26.6863 37 30 37C33.3137 37 36 34.3137 36 31C36 27.6863 33.3137 25 30 25ZM30 35C32.2091 35 34 33.2091 34 31C34 29.1362 32.7252 27.5701 31 27.126V31C31 31.5523 30.5523 32 30 32H26.126C26.5701 33.7252 28.1362 35 30 35ZM26.126 30H29V27.126C27.5944 27.4878 26.4878 28.5944 26.126 30Z" fill="black"/>
<path fill-rule="evenodd" clip-rule="evenodd" d="M20 23C20 21.3431 21.3431 20 23 20H49C50.6569 20 52 21.3431 52 23V49C52 50.6569 50.6569 52 49 52H23C21.3431 52 20 50.6569 20 49V23ZM23 22H49C49.5523 22 50 22.4477 50 23V49C50 49.5523 49.5523 50 49 50H23C22.4477 50 22 49.5523 22 49V23C22 22.4477 22.4477 22 23 22Z" fill="black"/>
</svg>
