<svg width="72" height="72" viewBox="0 0 72 72" fill="none" xmlns="http://www.w3.org/2000/svg">
<rect width="72" height="72" rx="36" fill="#E4E4E4"/>
<path d="M27 27C27 26.4477 27.4477 26 28 26H35C35.5523 26 36 26.4477 36 27C36 27.5523 35.5523 28 35 28H28C27.4477 28 27 27.5523 27 27Z" fill="black"/>
<path d="M27 32C27 31.4477 27.4477 31 28 31H42C42.5523 31 43 31.4477 43 32C43 32.5523 42.5523 33 42 33H28C27.4477 33 27 32.5523 27 32Z" fill="black"/>
<path d="M28 36C27.4477 36 27 36.4477 27 37C27 37.5523 27.4477 38 28 38H42C42.5523 38 43 37.5523 43 37C43 36.4477 42.5523 36 42 36H28Z" fill="black"/>
<path fill-rule="evenodd" clip-rule="evenodd" d="M26.9999 18H50.9999C53.7614 18 55.9999 20.2386 55.9999 23V26C55.9999 27.6569 54.6568 29 52.9999 29H48L48 49C48 51.7614 45.7614 54 43 54L21 54C18.2386 54 16 51.7614 16 49L16 46C16 44.3431 17.3432 43 19 43H21.9999V23C21.9999 20.2386 24.2385 18 26.9999 18ZM23.9999 23C23.9999 21.3431 25.3431 20 26.9999 20H46.9996C46.3719 20.8357 46 21.8744 46 23L46 49C46 50.6569 44.6568 52 43 52C41.3431 52 40 50.6569 40 49V46C40 44.3431 38.6568 43 37 43L23.9999 43V23ZM52.9999 27H48V23C48 21.3431 49.3431 20 50.9999 20C52.6568 20 53.9999 21.3431 53.9999 23V26C53.9999 26.5523 53.5522 27 52.9999 27ZM38 49C38 50.1256 38.3719 51.1643 38.9996 52L21 52C19.3431 52 18 50.6568 18 49L18 46C18 45.4477 18.4477 45 19 45L37 45C37.5522 45 38 45.4477 38 46V49Z" fill="black"/>
</svg>
